<svg width="32" height="32" viewBox="0 0 32 32" fill="none" xmlns="http://www.w3.org/2000/svg">
  <!-- 背景圆形 -->
  <circle cx="16" cy="16" r="16" fill="url(#faviconGradient)"/>
  
  <!-- 简化海浪 -->
  <path d="M4 18C6 16 8 16 10 18C12 20 14 20 16 18C18 16 20 16 22 18C24 20 26 20 28 18" 
        stroke="#ffffff" stroke-width="1.5" fill="none" opacity="0.7"/>
  
  <!-- 简化盾牌 -->
  <path d="M16 6L20 9V16C20 19 18 21 16 22C14 21 12 19 12 16V9L16 6Z" 
        fill="#ffffff" stroke="#0EA5E9" stroke-width="0.5"/>
  
  <!-- 盾牌内简化图案 -->
  <circle cx="16" cy="12" r="1" fill="#0EA5E9"/>
  <path d="M14 15L16 16L18 15" stroke="#10B981" stroke-width="1" fill="none"/>
  
  <!-- 装饰气泡 -->
  <circle cx="10" cy="10" r="1" fill="#ffffff" opacity="0.8"/>
  <circle cx="22" cy="12" r="0.8" fill="#ffffff" opacity="0.6"/>
  <circle cx="9" cy="24" r="0.8" fill="#ffffff" opacity="0.7"/>
  <circle cx="23" cy="23" r="1" fill="#ffffff" opacity="0.5"/>
  
  <!-- 渐变定义 -->
  <defs>
    <linearGradient id="faviconGradient" x1="0%" y1="0%" x2="100%" y2="100%">
      <stop offset="0%" style="stop-color:#0EA5E9;stop-opacity:1" />
      <stop offset="50%" style="stop-color:#0284C7;stop-opacity:1" />
      <stop offset="100%" style="stop-color:#0F172A;stop-opacity:1" />
    </linearGradient>
  </defs>
</svg> 