<svg width="64" height="64" viewBox="0 0 64 64" fill="none" xmlns="http://www.w3.org/2000/svg">
  <!-- 背景圆形 -->
  <circle cx="32" cy="32" r="32" fill="url(#oceanGradient)"/>
  
  <!-- 海浪图案 -->
  <path d="M8 35C12 31 16 31 20 35C24 39 28 39 32 35C36 31 40 31 44 35C48 39 52 39 56 35" 
        stroke="#ffffff" stroke-width="2" fill="none" opacity="0.6"/>
  <path d="M8 42C12 38 16 38 20 42C24 46 28 46 32 42C36 38 40 38 44 42C48 46 52 46 56 42" 
        stroke="#ffffff" stroke-width="2" fill="none" opacity="0.4"/>
  
  <!-- 中央保护盾牌 -->
  <path d="M32 12L38 18V28C38 34 35 38 32 40C29 38 26 34 26 28V18L32 12Z" 
        fill="#ffffff" stroke="#0EA5E9" stroke-width="1"/>
  
  <!-- 盾牌内的海洋生物图案 -->
  <circle cx="32" cy="22" r="2" fill="#0EA5E9"/>
  <path d="M28 26C30 24 34 24 36 26C34 28 30 28 28 26Z" fill="#10B981"/>
  <path d="M29 30L32 32L35 30" stroke="#0EA5E9" stroke-width="1.5" fill="none"/>
  
  <!-- 装饰性水滴 -->
  <circle cx="20" cy="20" r="1.5" fill="#ffffff" opacity="0.8"/>
  <circle cx="44" cy="24" r="1" fill="#ffffff" opacity="0.6"/>
  <circle cx="18" cy="48" r="1" fill="#ffffff" opacity="0.7"/>
  <circle cx="46" cy="46" r="1.5" fill="#ffffff" opacity="0.5"/>
  
  <!-- 渐变定义 -->
  <defs>
    <linearGradient id="oceanGradient" x1="0%" y1="0%" x2="100%" y2="100%">
      <stop offset="0%" style="stop-color:#0EA5E9;stop-opacity:1" />
      <stop offset="50%" style="stop-color:#0284C7;stop-opacity:1" />
      <stop offset="100%" style="stop-color:#0F172A;stop-opacity:1" />
    </linearGradient>
  </defs>
</svg> 